# xmcd
#
# Track frame offsets:
#	150
#	18772
#	38590
#	60692
#	75527
#	95410
#	113870
#	129660
#	147142
#	162585
#	182282
#	200910
#
# Disc length: 2944 seconds
#
# Revision: 8
# Processed by: cddbd v1.5.2PL0 Copyright (c) Steve Scherf et al.
# Submitted via: EasyCDDAExtractor 15.3.0.1
#
DISCID=9a0b7e0c
DTITLE=Varios Artistas - Lo Nuestro Y Lo Mejor
DYEAR=1997
DGENRE=Latin
TTITLE0=Celine Dion - Sola Otra Vez
TTITLE1=Ricky Martin - Maria
TTITLE2=Ricardo Arjona - Si El Norte Fuera El Sur
TTITLE3=Ana Gabriel - Un Viejo Amor
TTITLE4=Franco De Vita - Fuera De Este Mundo
TTITLE5=Fey - Gatos En El Balcon
TTITLE6=La Mafia - Un Millon De Rosas
TTITLE7=Shakira - Estoy Aqui
TTITLE8=Chayanne - Solamente Tu Amor
TTITLE9=Jose Luis Perales - Cantame
TTITLE10=Monica Naranjo - Sola
TTITLE11=Rosario - Sabor, Sabor
EXTD=YEAR: 1997
EXTT0=
EXTT1=
EXTT2=
EXTT3=
EXTT4=
EXTT5=
EXTT6=
EXTT7=
EXTT8=
EXTT9=
EXTT10=
EXTT11=
PLAYORDER=
